<mxfile host="app.diagrams.net" agent="Mozilla/5.0 (X11; Linux x86_64) AppleWebKit/537.36 (KHTML, like Gecko) Chrome/135.0.0.0 Safari/537.36" version="26.2.14">
  <diagram name="Page-1" id="XpJpF17i611gn4EtRXyh">
    <mxGraphModel dx="1243" dy="707" grid="0" gridSize="10" guides="1" tooltips="1" connect="1" arrows="1" fold="1" page="1" pageScale="1" pageWidth="1100" pageHeight="850" math="0" shadow="0">
      <root>
        <mxCell id="0" />
        <mxCell id="1" parent="0" />
        <mxCell id="tjFjV3zPK-5VgnkJpRd7-51" value="buildings" style="shape=table;startSize=30;container=1;collapsible=1;childLayout=tableLayout;fixedRows=1;rowLines=0;fontStyle=1;align=center;resizeLast=1;html=1;whiteSpace=wrap;" vertex="1" parent="1">
          <mxGeometry x="245" y="500" width="180" height="90" as="geometry" />
        </mxCell>
        <mxCell id="tjFjV3zPK-5VgnkJpRd7-52" value="" style="shape=tableRow;horizontal=0;startSize=0;swimlaneHead=0;swimlaneBody=0;fillColor=none;collapsible=0;dropTarget=0;points=[[0,0.5],[1,0.5]];portConstraint=eastwest;top=0;left=0;right=0;bottom=0;html=1;" vertex="1" parent="tjFjV3zPK-5VgnkJpRd7-51">
          <mxGeometry y="30" width="180" height="30" as="geometry" />
        </mxCell>
        <mxCell id="tjFjV3zPK-5VgnkJpRd7-53" value="PK" style="shape=partialRectangle;connectable=0;fillColor=none;top=0;left=0;bottom=0;right=0;fontStyle=1;overflow=hidden;html=1;whiteSpace=wrap;" vertex="1" parent="tjFjV3zPK-5VgnkJpRd7-52">
          <mxGeometry width="60" height="30" as="geometry">
            <mxRectangle width="60" height="30" as="alternateBounds" />
          </mxGeometry>
        </mxCell>
        <mxCell id="tjFjV3zPK-5VgnkJpRd7-54" value="city" style="shape=partialRectangle;connectable=0;fillColor=none;top=0;left=0;bottom=0;right=0;align=left;spacingLeft=6;fontStyle=5;overflow=hidden;html=1;whiteSpace=wrap;" vertex="1" parent="tjFjV3zPK-5VgnkJpRd7-52">
          <mxGeometry x="60" width="120" height="30" as="geometry">
            <mxRectangle width="120" height="30" as="alternateBounds" />
          </mxGeometry>
        </mxCell>
        <mxCell id="tjFjV3zPK-5VgnkJpRd7-55" value="" style="shape=tableRow;horizontal=0;startSize=0;swimlaneHead=0;swimlaneBody=0;fillColor=none;collapsible=0;dropTarget=0;points=[[0,0.5],[1,0.5]];portConstraint=eastwest;top=0;left=0;right=0;bottom=1;html=1;" vertex="1" parent="tjFjV3zPK-5VgnkJpRd7-51">
          <mxGeometry y="60" width="180" height="30" as="geometry" />
        </mxCell>
        <mxCell id="tjFjV3zPK-5VgnkJpRd7-56" value="PK" style="shape=partialRectangle;connectable=0;fillColor=none;top=0;left=0;bottom=0;right=0;fontStyle=1;overflow=hidden;html=1;whiteSpace=wrap;" vertex="1" parent="tjFjV3zPK-5VgnkJpRd7-55">
          <mxGeometry width="60" height="30" as="geometry">
            <mxRectangle width="60" height="30" as="alternateBounds" />
          </mxGeometry>
        </mxCell>
        <mxCell id="tjFjV3zPK-5VgnkJpRd7-57" value="number" style="shape=partialRectangle;connectable=0;fillColor=none;top=0;left=0;bottom=0;right=0;align=left;spacingLeft=6;fontStyle=5;overflow=hidden;html=1;whiteSpace=wrap;" vertex="1" parent="tjFjV3zPK-5VgnkJpRd7-55">
          <mxGeometry x="60" width="120" height="30" as="geometry">
            <mxRectangle width="120" height="30" as="alternateBounds" />
          </mxGeometry>
        </mxCell>
        <mxCell id="tjFjV3zPK-5VgnkJpRd7-58" value="departments" style="shape=table;startSize=30;container=1;collapsible=1;childLayout=tableLayout;fixedRows=1;rowLines=0;fontStyle=1;align=center;resizeLast=1;html=1;" vertex="1" parent="1">
          <mxGeometry x="239" y="152" width="180" height="180" as="geometry" />
        </mxCell>
        <mxCell id="tjFjV3zPK-5VgnkJpRd7-59" value="" style="shape=tableRow;horizontal=0;startSize=0;swimlaneHead=0;swimlaneBody=0;fillColor=none;collapsible=0;dropTarget=0;points=[[0,0.5],[1,0.5]];portConstraint=eastwest;top=0;left=0;right=0;bottom=1;" vertex="1" parent="tjFjV3zPK-5VgnkJpRd7-58">
          <mxGeometry y="30" width="180" height="30" as="geometry" />
        </mxCell>
        <mxCell id="tjFjV3zPK-5VgnkJpRd7-60" value="PK" style="shape=partialRectangle;connectable=0;fillColor=none;top=0;left=0;bottom=0;right=0;fontStyle=1;overflow=hidden;whiteSpace=wrap;html=1;" vertex="1" parent="tjFjV3zPK-5VgnkJpRd7-59">
          <mxGeometry width="30" height="30" as="geometry">
            <mxRectangle width="30" height="30" as="alternateBounds" />
          </mxGeometry>
        </mxCell>
        <mxCell id="tjFjV3zPK-5VgnkJpRd7-61" value="number" style="shape=partialRectangle;connectable=0;fillColor=none;top=0;left=0;bottom=0;right=0;align=left;spacingLeft=6;fontStyle=5;overflow=hidden;whiteSpace=wrap;html=1;" vertex="1" parent="tjFjV3zPK-5VgnkJpRd7-59">
          <mxGeometry x="30" width="150" height="30" as="geometry">
            <mxRectangle width="150" height="30" as="alternateBounds" />
          </mxGeometry>
        </mxCell>
        <mxCell id="tjFjV3zPK-5VgnkJpRd7-62" value="" style="shape=tableRow;horizontal=0;startSize=0;swimlaneHead=0;swimlaneBody=0;fillColor=none;collapsible=0;dropTarget=0;points=[[0,0.5],[1,0.5]];portConstraint=eastwest;top=0;left=0;right=0;bottom=0;" vertex="1" parent="tjFjV3zPK-5VgnkJpRd7-58">
          <mxGeometry y="60" width="180" height="30" as="geometry" />
        </mxCell>
        <mxCell id="tjFjV3zPK-5VgnkJpRd7-63" value="FK1" style="shape=partialRectangle;connectable=0;fillColor=none;top=0;left=0;bottom=0;right=0;editable=1;overflow=hidden;whiteSpace=wrap;html=1;" vertex="1" parent="tjFjV3zPK-5VgnkJpRd7-62">
          <mxGeometry width="30" height="30" as="geometry">
            <mxRectangle width="30" height="30" as="alternateBounds" />
          </mxGeometry>
        </mxCell>
        <mxCell id="tjFjV3zPK-5VgnkJpRd7-64" value="building_city" style="shape=partialRectangle;connectable=0;fillColor=none;top=0;left=0;bottom=0;right=0;align=left;spacingLeft=6;overflow=hidden;whiteSpace=wrap;html=1;" vertex="1" parent="tjFjV3zPK-5VgnkJpRd7-62">
          <mxGeometry x="30" width="150" height="30" as="geometry">
            <mxRectangle width="150" height="30" as="alternateBounds" />
          </mxGeometry>
        </mxCell>
        <mxCell id="tjFjV3zPK-5VgnkJpRd7-65" value="" style="shape=tableRow;horizontal=0;startSize=0;swimlaneHead=0;swimlaneBody=0;fillColor=none;collapsible=0;dropTarget=0;points=[[0,0.5],[1,0.5]];portConstraint=eastwest;top=0;left=0;right=0;bottom=0;" vertex="1" parent="tjFjV3zPK-5VgnkJpRd7-58">
          <mxGeometry y="90" width="180" height="30" as="geometry" />
        </mxCell>
        <mxCell id="tjFjV3zPK-5VgnkJpRd7-66" value="FK1" style="shape=partialRectangle;connectable=0;fillColor=none;top=0;left=0;bottom=1;right=0;editable=1;overflow=hidden;whiteSpace=wrap;html=1;" vertex="1" parent="tjFjV3zPK-5VgnkJpRd7-65">
          <mxGeometry width="30" height="30" as="geometry">
            <mxRectangle width="30" height="30" as="alternateBounds" />
          </mxGeometry>
        </mxCell>
        <mxCell id="tjFjV3zPK-5VgnkJpRd7-67" value="building_number" style="shape=partialRectangle;connectable=0;fillColor=none;top=0;left=0;bottom=1;right=0;align=left;spacingLeft=6;overflow=hidden;whiteSpace=wrap;html=1;" vertex="1" parent="tjFjV3zPK-5VgnkJpRd7-65">
          <mxGeometry x="30" width="150" height="30" as="geometry">
            <mxRectangle width="150" height="30" as="alternateBounds" />
          </mxGeometry>
        </mxCell>
        <mxCell id="tjFjV3zPK-5VgnkJpRd7-68" value="" style="shape=tableRow;horizontal=0;startSize=0;swimlaneHead=0;swimlaneBody=0;fillColor=none;collapsible=0;dropTarget=0;points=[[0,0.5],[1,0.5]];portConstraint=eastwest;top=0;left=0;right=0;bottom=0;" vertex="1" parent="tjFjV3zPK-5VgnkJpRd7-58">
          <mxGeometry y="120" width="180" height="30" as="geometry" />
        </mxCell>
        <mxCell id="tjFjV3zPK-5VgnkJpRd7-69" value="UQ" style="shape=partialRectangle;connectable=0;fillColor=none;top=0;left=0;bottom=0;right=0;editable=1;overflow=hidden;whiteSpace=wrap;html=1;" vertex="1" parent="tjFjV3zPK-5VgnkJpRd7-68">
          <mxGeometry width="30" height="30" as="geometry">
            <mxRectangle width="30" height="30" as="alternateBounds" />
          </mxGeometry>
        </mxCell>
        <mxCell id="tjFjV3zPK-5VgnkJpRd7-70" value="name" style="shape=partialRectangle;connectable=0;fillColor=none;top=0;left=0;bottom=0;right=0;align=left;spacingLeft=6;overflow=hidden;whiteSpace=wrap;html=1;" vertex="1" parent="tjFjV3zPK-5VgnkJpRd7-68">
          <mxGeometry x="30" width="150" height="30" as="geometry">
            <mxRectangle width="150" height="30" as="alternateBounds" />
          </mxGeometry>
        </mxCell>
        <mxCell id="tjFjV3zPK-5VgnkJpRd7-71" value="" style="shape=tableRow;horizontal=0;startSize=0;swimlaneHead=0;swimlaneBody=0;fillColor=none;collapsible=0;dropTarget=0;points=[[0,0.5],[1,0.5]];portConstraint=eastwest;top=0;left=0;right=0;bottom=0;" vertex="1" parent="tjFjV3zPK-5VgnkJpRd7-58">
          <mxGeometry y="150" width="180" height="30" as="geometry" />
        </mxCell>
        <mxCell id="tjFjV3zPK-5VgnkJpRd7-72" value="" style="shape=partialRectangle;connectable=0;fillColor=none;top=0;left=0;bottom=0;right=0;editable=1;overflow=hidden;whiteSpace=wrap;html=1;" vertex="1" parent="tjFjV3zPK-5VgnkJpRd7-71">
          <mxGeometry width="30" height="30" as="geometry">
            <mxRectangle width="30" height="30" as="alternateBounds" />
          </mxGeometry>
        </mxCell>
        <mxCell id="tjFjV3zPK-5VgnkJpRd7-73" value="annual_budget" style="shape=partialRectangle;connectable=0;fillColor=none;top=0;left=0;bottom=0;right=0;align=left;spacingLeft=6;overflow=hidden;whiteSpace=wrap;html=1;" vertex="1" parent="tjFjV3zPK-5VgnkJpRd7-71">
          <mxGeometry x="30" width="150" height="30" as="geometry">
            <mxRectangle width="150" height="30" as="alternateBounds" />
          </mxGeometry>
        </mxCell>
        <mxCell id="tjFjV3zPK-5VgnkJpRd7-74" value="" style="edgeStyle=orthogonalEdgeStyle;fontSize=12;html=1;endArrow=ERoneToMany;startArrow=ERmandOne;rounded=0;entryX=-0.001;entryY=0.896;entryDx=0;entryDy=0;entryPerimeter=0;exitX=-0.002;exitY=0.957;exitDx=0;exitDy=0;exitPerimeter=0;" edge="1" parent="1" source="tjFjV3zPK-5VgnkJpRd7-52" target="tjFjV3zPK-5VgnkJpRd7-62">
          <mxGeometry width="100" height="100" relative="1" as="geometry">
            <mxPoint x="815" y="301" as="sourcePoint" />
            <mxPoint x="986" y="296" as="targetPoint" />
            <Array as="points">
              <mxPoint x="204" y="559" />
              <mxPoint x="204" y="239" />
            </Array>
          </mxGeometry>
        </mxCell>
        <mxCell id="tjFjV3zPK-5VgnkJpRd7-88" value="" style="edgeStyle=entityRelationEdgeStyle;fontSize=12;html=1;endArrow=ERoneToMany;startArrow=ERmandOne;rounded=0;entryX=0;entryY=0.5;entryDx=0;entryDy=0;exitX=1;exitY=0.5;exitDx=0;exitDy=0;" edge="1" parent="1" source="tjFjV3zPK-5VgnkJpRd7-59" target="tjFjV3zPK-5VgnkJpRd7-106">
          <mxGeometry width="100" height="100" relative="1" as="geometry">
            <mxPoint x="832" y="311" as="sourcePoint" />
            <mxPoint x="1279" y="192" as="targetPoint" />
          </mxGeometry>
        </mxCell>
        <mxCell id="tjFjV3zPK-5VgnkJpRd7-102" value="employees" style="shape=table;startSize=30;container=1;collapsible=1;childLayout=tableLayout;fixedRows=1;rowLines=0;fontStyle=1;align=center;resizeLast=1;html=1;whiteSpace=wrap;" vertex="1" parent="1">
          <mxGeometry x="615" y="152" width="242" height="180" as="geometry" />
        </mxCell>
        <mxCell id="tjFjV3zPK-5VgnkJpRd7-103" value="" style="shape=tableRow;horizontal=0;startSize=0;swimlaneHead=0;swimlaneBody=0;fillColor=none;collapsible=0;dropTarget=0;points=[[0,0.5],[1,0.5]];portConstraint=eastwest;top=0;left=0;right=0;bottom=0;html=1;" vertex="1" parent="tjFjV3zPK-5VgnkJpRd7-102">
          <mxGeometry y="30" width="242" height="30" as="geometry" />
        </mxCell>
        <mxCell id="tjFjV3zPK-5VgnkJpRd7-104" value="PK" style="shape=partialRectangle;connectable=0;fillColor=none;top=0;left=0;bottom=0;right=0;fontStyle=1;overflow=hidden;html=1;whiteSpace=wrap;" vertex="1" parent="tjFjV3zPK-5VgnkJpRd7-103">
          <mxGeometry width="60" height="30" as="geometry">
            <mxRectangle width="60" height="30" as="alternateBounds" />
          </mxGeometry>
        </mxCell>
        <mxCell id="tjFjV3zPK-5VgnkJpRd7-105" value="number" style="shape=partialRectangle;connectable=0;fillColor=none;top=0;left=0;bottom=0;right=0;align=left;spacingLeft=6;fontStyle=5;overflow=hidden;html=1;whiteSpace=wrap;" vertex="1" parent="tjFjV3zPK-5VgnkJpRd7-103">
          <mxGeometry x="60" width="182" height="30" as="geometry">
            <mxRectangle width="182" height="30" as="alternateBounds" />
          </mxGeometry>
        </mxCell>
        <mxCell id="tjFjV3zPK-5VgnkJpRd7-106" value="" style="shape=tableRow;horizontal=0;startSize=0;swimlaneHead=0;swimlaneBody=0;fillColor=none;collapsible=0;dropTarget=0;points=[[0,0.5],[1,0.5]];portConstraint=eastwest;top=0;left=0;right=0;bottom=1;html=1;" vertex="1" parent="tjFjV3zPK-5VgnkJpRd7-102">
          <mxGeometry y="60" width="242" height="30" as="geometry" />
        </mxCell>
        <mxCell id="tjFjV3zPK-5VgnkJpRd7-107" value="PK,FK1" style="shape=partialRectangle;connectable=0;fillColor=none;top=0;left=0;bottom=0;right=0;fontStyle=1;overflow=hidden;html=1;whiteSpace=wrap;" vertex="1" parent="tjFjV3zPK-5VgnkJpRd7-106">
          <mxGeometry width="60" height="30" as="geometry">
            <mxRectangle width="60" height="30" as="alternateBounds" />
          </mxGeometry>
        </mxCell>
        <mxCell id="tjFjV3zPK-5VgnkJpRd7-108" value="department_number" style="shape=partialRectangle;connectable=0;fillColor=none;top=0;left=0;bottom=0;right=0;align=left;spacingLeft=6;fontStyle=5;overflow=hidden;html=1;whiteSpace=wrap;" vertex="1" parent="tjFjV3zPK-5VgnkJpRd7-106">
          <mxGeometry x="60" width="182" height="30" as="geometry">
            <mxRectangle width="182" height="30" as="alternateBounds" />
          </mxGeometry>
        </mxCell>
        <mxCell id="tjFjV3zPK-5VgnkJpRd7-109" value="" style="shape=tableRow;horizontal=0;startSize=0;swimlaneHead=0;swimlaneBody=0;fillColor=none;collapsible=0;dropTarget=0;points=[[0,0.5],[1,0.5]];portConstraint=eastwest;top=0;left=0;right=0;bottom=0;html=1;" vertex="1" parent="tjFjV3zPK-5VgnkJpRd7-102">
          <mxGeometry y="90" width="242" height="30" as="geometry" />
        </mxCell>
        <mxCell id="tjFjV3zPK-5VgnkJpRd7-110" value="FK2" style="shape=partialRectangle;connectable=0;fillColor=none;top=0;left=0;bottom=0;right=0;editable=1;overflow=hidden;html=1;whiteSpace=wrap;" vertex="1" parent="tjFjV3zPK-5VgnkJpRd7-109">
          <mxGeometry width="60" height="30" as="geometry">
            <mxRectangle width="60" height="30" as="alternateBounds" />
          </mxGeometry>
        </mxCell>
        <mxCell id="tjFjV3zPK-5VgnkJpRd7-111" value="manager_number" style="shape=partialRectangle;connectable=0;fillColor=none;top=0;left=0;bottom=0;right=0;align=left;spacingLeft=6;overflow=hidden;html=1;whiteSpace=wrap;" vertex="1" parent="tjFjV3zPK-5VgnkJpRd7-109">
          <mxGeometry x="60" width="182" height="30" as="geometry">
            <mxRectangle width="182" height="30" as="alternateBounds" />
          </mxGeometry>
        </mxCell>
        <mxCell id="tjFjV3zPK-5VgnkJpRd7-115" value="" style="shape=tableRow;horizontal=0;startSize=0;swimlaneHead=0;swimlaneBody=0;fillColor=none;collapsible=0;dropTarget=0;points=[[0,0.5],[1,0.5]];portConstraint=eastwest;top=0;left=0;right=0;bottom=0;html=1;" vertex="1" parent="tjFjV3zPK-5VgnkJpRd7-102">
          <mxGeometry y="120" width="242" height="30" as="geometry" />
        </mxCell>
        <mxCell id="tjFjV3zPK-5VgnkJpRd7-116" value="FK2" style="shape=partialRectangle;connectable=0;fillColor=none;top=0;left=0;bottom=1;right=0;editable=1;overflow=hidden;html=1;whiteSpace=wrap;" vertex="1" parent="tjFjV3zPK-5VgnkJpRd7-115">
          <mxGeometry width="60" height="30" as="geometry">
            <mxRectangle width="60" height="30" as="alternateBounds" />
          </mxGeometry>
        </mxCell>
        <mxCell id="tjFjV3zPK-5VgnkJpRd7-117" value="manager_department_number" style="shape=partialRectangle;connectable=0;fillColor=none;top=0;left=0;bottom=1;right=0;align=left;spacingLeft=6;overflow=hidden;html=1;whiteSpace=wrap;" vertex="1" parent="tjFjV3zPK-5VgnkJpRd7-115">
          <mxGeometry x="60" width="182" height="30" as="geometry">
            <mxRectangle width="182" height="30" as="alternateBounds" />
          </mxGeometry>
        </mxCell>
        <mxCell id="tjFjV3zPK-5VgnkJpRd7-118" value="" style="shape=tableRow;horizontal=0;startSize=0;swimlaneHead=0;swimlaneBody=0;fillColor=none;collapsible=0;dropTarget=0;points=[[0,0.5],[1,0.5]];portConstraint=eastwest;top=0;left=0;right=0;bottom=0;html=1;" vertex="1" parent="tjFjV3zPK-5VgnkJpRd7-102">
          <mxGeometry y="150" width="242" height="30" as="geometry" />
        </mxCell>
        <mxCell id="tjFjV3zPK-5VgnkJpRd7-119" value="" style="shape=partialRectangle;connectable=0;fillColor=none;top=0;left=0;bottom=0;right=0;editable=1;overflow=hidden;html=1;whiteSpace=wrap;" vertex="1" parent="tjFjV3zPK-5VgnkJpRd7-118">
          <mxGeometry width="60" height="30" as="geometry">
            <mxRectangle width="60" height="30" as="alternateBounds" />
          </mxGeometry>
        </mxCell>
        <mxCell id="tjFjV3zPK-5VgnkJpRd7-120" value="name" style="shape=partialRectangle;connectable=0;fillColor=none;top=0;left=0;bottom=0;right=0;align=left;spacingLeft=6;overflow=hidden;html=1;whiteSpace=wrap;" vertex="1" parent="tjFjV3zPK-5VgnkJpRd7-118">
          <mxGeometry x="60" width="182" height="30" as="geometry">
            <mxRectangle width="182" height="30" as="alternateBounds" />
          </mxGeometry>
        </mxCell>
        <mxCell id="tjFjV3zPK-5VgnkJpRd7-121" value="" style="edgeStyle=orthogonalEdgeStyle;fontSize=12;html=1;endArrow=ERoneToMany;startArrow=ERmandOne;rounded=0;entryX=0.999;entryY=0.918;entryDx=0;entryDy=0;exitX=1;exitY=0.897;exitDx=0;exitDy=0;entryPerimeter=0;exitPerimeter=0;" edge="1" parent="tjFjV3zPK-5VgnkJpRd7-102" source="tjFjV3zPK-5VgnkJpRd7-103" target="tjFjV3zPK-5VgnkJpRd7-109">
          <mxGeometry width="100" height="100" relative="1" as="geometry">
            <mxPoint x="-146" y="127" as="sourcePoint" />
            <mxPoint x="10" y="55" as="targetPoint" />
            <Array as="points">
              <mxPoint x="258" y="57" />
              <mxPoint x="258" y="118" />
            </Array>
          </mxGeometry>
        </mxCell>
        <mxCell id="tjFjV3zPK-5VgnkJpRd7-122" value="manager puede dirigir a&lt;div&gt;empleados de distintos&lt;/div&gt;&lt;div&gt;departamentos&lt;/div&gt;" style="text;html=1;align=center;verticalAlign=middle;resizable=0;points=[];autosize=1;strokeColor=none;fillColor=none;" vertex="1" parent="1">
          <mxGeometry x="873" y="239" width="145" height="55" as="geometry" />
        </mxCell>
        <mxCell id="tjFjV3zPK-5VgnkJpRd7-123" value="Update: CASCADE&lt;div&gt;Delete: RESTRICT&lt;/div&gt;" style="text;html=1;align=center;verticalAlign=middle;resizable=0;points=[];autosize=1;strokeColor=none;fillColor=none;" vertex="1" parent="1">
          <mxGeometry x="83" y="369" width="121" height="41" as="geometry" />
        </mxCell>
        <mxCell id="tjFjV3zPK-5VgnkJpRd7-124" value="Update: CASCADE&lt;div&gt;Delete: RESTRICT&lt;/div&gt;" style="text;html=1;align=center;verticalAlign=middle;resizable=0;points=[];autosize=1;strokeColor=none;fillColor=none;" vertex="1" parent="1">
          <mxGeometry x="457" y="157" width="121" height="41" as="geometry" />
        </mxCell>
        <mxCell id="tjFjV3zPK-5VgnkJpRd7-125" value="Update: CASCADE&lt;div&gt;Delete: RESTRICT&lt;/div&gt;" style="text;html=1;align=center;verticalAlign=middle;resizable=0;points=[];autosize=1;strokeColor=none;fillColor=none;" vertex="1" parent="1">
          <mxGeometry x="873" y="198" width="121" height="41" as="geometry" />
        </mxCell>
      </root>
    </mxGraphModel>
  </diagram>
</mxfile>
